<svg xmlns="http://www.w3.org/2000/svg" version="1.1" xmlns:xlink="http://www.w3.org/1999/xlink" xmlns:svgjs="http://svgjs.dev/svgjs" width="500" height="240" preserveAspectRatio="none" viewBox="0 0 500 240"><g mask="url(&quot;#SvgjsMask1126&quot;)" fill="none"><rect width="500" height="240" x="0" y="0" fill="rgba(242, 242, 242, 1)"></rect><path d="M10 240L250 0L329.5 0L89.5 240z" fill="url(&quot;#SvgjsLinearGradient1127&quot;)"></path><path d="M180 240L420 0L480 0L240 240z" fill="url(&quot;#SvgjsLinearGradient1127&quot;)"></path><path d="M491 240L251 0L192.5 0L432.5 240z" fill="url(&quot;#SvgjsLinearGradient1128&quot;)"></path><path d="M323 240L83 0L50 0L290 240z" fill="url(&quot;#SvgjsLinearGradient1128&quot;)"></path><path d="M308.3229808277904 240L500 48.32298082779036L500 240z" fill="url(&quot;#SvgjsLinearGradient1127&quot;)"></path><path d="M0 240L191.67701917220964 240L 0 48.32298082779036z" fill="url(&quot;#SvgjsLinearGradient1128&quot;)"></path></g><defs><mask id="SvgjsMask1126"><rect width="500" height="240" fill="#ffffff"></rect></mask><linearGradient x1="0%" y1="100%" x2="100%" y2="0%" id="SvgjsLinearGradient1127"><stop stop-color="rgba(249, 109, 0, 1)" offset="0"></stop><stop stop-opacity="0" stop-color="rgba(249, 109, 0, 1)" offset="0.66"></stop></linearGradient><linearGradient x1="100%" y1="100%" x2="0%" y2="0%" id="SvgjsLinearGradient1128"><stop stop-color="rgba(249, 109, 0, 1)" offset="0"></stop><stop stop-opacity="0" stop-color="rgba(249, 109, 0, 1)" offset="0.66"></stop></linearGradient></defs></svg>