<svg xmlns="http://www.w3.org/2000/svg" version="1.1" xmlns:xlink="http://www.w3.org/1999/xlink" xmlns:svgjs="http://svgjs.dev/svgjs" width="1440" height="560" preserveAspectRatio="none" viewBox="0 0 1440 560"><g mask="url(&quot;#SvgjsMask1003&quot;)" fill="none"><rect width="1440" height="560" x="0" y="0" fill="rgba(249, 109, 0, 1)"></rect><path d="M280 102.08C255.7 108.76 242.86 120.64 242.86 140C242.86 160.28 260.33 161.75 280 181.36C330.56 231.75 337.2 226.35 383.33 280C407.2 307.76 390.8 342.3 420 344.17C479.13 347.95 492.06 320.56 560 291.29C566.55 288.47 564.04 285.26 568.97 280C634.04 210.56 634.36 210.81 700 141.89C701.03 140.81 702.3 140.99 702.3 140C702.3 138.95 701.06 139 700 137.81C638.66 69 577.5 41.4 577.5 0C577.5 -27.5 638.75 0 700 0C770 0 770 0 840 0C848.75 0 852.55 -6.76 857.5 0C903.77 63.24 918.05 64.55 942.44 140C963.3 204.55 940.31 210.54 948 280C955.81 350.54 958.5 351.06 973.44 420C974.5 424.88 975.17 427.64 980 427.64C1020.45 427.64 1059.04 446.47 1064 420C1072.87 372.65 1017.65 352.35 1007.65 280C998.3 212.35 1026.87 209.77 1025.29 140C1023.7 69.77 975.5 38.13 1001.3 0C1022.86 -31.87 1060.65 0 1120 0C1190 0 1190 0 1260 0C1330 0 1330 0 1400 0C1470 0 1505 -35 1540 0C1575 35 1540 70 1540 140C1540 184.28 1567.12 212.3 1540 228.57C1497.12 254.3 1462.6 207.57 1400 224C1364.6 233.29 1357.41 244.79 1344 280C1320.08 342.79 1331.77 349.74 1325.33 420C1318.94 489.74 1341.4 510.57 1318.33 560C1308.73 580.57 1289.16 560 1260 560C1238.13 560 1231.25 573.75 1216.25 560C1161.25 509.58 1157.44 431.67 1120 431.67C1088.51 431.67 1118.86 522.89 1078.38 560C1048.86 587.06 1029.19 560 980 560C910 560 910 560 840 560C770 560 770 560 700 560C630 560 630 560 560 560C490 560 490 560 420 560C350 560 350 560 280 560C218.44 560 207.94 575.47 156.87 560C137.94 554.26 151.26 517.58 140 517.58C126.92 517.58 131.21 553.02 108.18 560C61.21 574.23 23.58 590.51 0 560C-30.51 520.51 0 490 0 420C0 350 0 350 0 280C0 210 0 210 0 140C0 70 -35 35 0 0C35 -35 70 0 140 0C210 0 210 0 280 0C350 0 350 0 420 0C463.75 0 507.5 -18.67 507.5 0C507.5 26.98 473.9 67.11 420 91.3C360.15 118.15 344.27 84.41 280 102.08" stroke="rgba(218, 95, 0, 1)" stroke-width="2"></path><path d="M700 387.58C680.7 387.58 661.01 402.58 661.01 420C661.01 439.6 680.76 461.62 700 461.62C718.81 461.62 737.11 439.65 737.11 420C737.11 402.63 718.75 387.58 700 387.58" stroke="rgba(218, 95, 0, 1)" stroke-width="2"></path><path d="M1496 420C1507.42 388.5 1527.57 366.9 1540 366.9C1549.57 366.9 1540 393.45 1540 420C1540 490 1563.33 513.33 1540 560C1528.33 583.33 1477.25 583.07 1470 560C1455.25 513.07 1472.42 485.05 1496 420" stroke="rgba(218, 95, 0, 1)" stroke-width="2"></path><path d="M86.9 140C94.24 99.65 117.44 70 140 70C159.7 70 148.98 109.38 171.43 140C218.98 204.84 225.06 201.09 280 260.91C289.35 271.09 292.28 268.6 300 280C346.13 348.14 360.1 344.41 387.69 420C411.19 484.41 431 522.53 402.18 560C377.16 592.53 341.09 560 280 560C239.52 560 222.46 584.59 199.04 560C155.8 514.59 171.77 490.34 146.67 420C142.25 407.62 143.08 394.55 140 394.55C136.95 394.55 141.6 409.3 134.4 420C85.92 492.03 86.41 499.82 28.64 560C19.21 569.82 2.43 571.89 0 560C-11.89 501.89 0 490 0 420C0 373.34 -23.14 358.49 0 326.67C27.77 288.49 82.57 321.35 101.82 280C126.02 228.02 75.15 204.65 86.9 140" stroke="rgba(218, 95, 0, 1)" stroke-width="2"></path><path d="M78.4 0C78.4 17.13 24.26 61.25 0 61.25C-14.94 61.25 -17.19 13.43 0 0C22.01 -17.19 78.4 -13.5 78.4 0" stroke="rgba(218, 95, 0, 1)" stroke-width="2"></path><path d="M280 29.17C246.54 29.17 213.33 7.61 213.33 0C213.33 -6.97 246.66 0 280 0C315 0 350 -7 350 0C350 7.58 314.87 29.17 280 29.17" stroke="rgba(218, 95, 0, 1)" stroke-width="2"></path><path d="M700 83.13C661.65 42.93 626.11 24.97 626.11 0C626.11 -16.59 663.06 0 700 0C742.9 0 749.28 -14.86 785.81 0C819.28 13.61 815.24 26.54 840 56.95C872.22 96.54 887.52 92.91 899.76 140C916.52 204.44 893.28 210.38 898 280C902.77 350.38 894.11 356.52 918.75 420C935.11 462.15 950.61 454.64 980 491.27C1006.78 524.64 1031.08 538.47 1031.08 560C1031.08 572.84 1005.54 560 980 560C910 560 910 560 840 560C770 560 770 560 700 560C630 560 630 560 560 560C530.84 560 516.16 579.92 501.67 560C465.25 509.92 442.43 477.32 458.18 420C471.59 371.19 514.03 389.08 560 347.74C591.86 319.08 585.24 312.4 613.85 280C655.24 233.13 654.93 232.46 700 189.19C727.84 162.46 759.67 165.67 759.67 140C759.67 112.64 728.43 112.93 700 83.13" stroke="rgba(218, 95, 0, 1)" stroke-width="2"></path><path d="M1076.76 140C1083.34 70.59 1060.81 53.67 1077.39 0C1082.43 -16.33 1098.7 0 1120 0C1190 0 1190 0 1260 0C1330 0 1330 0 1400 0C1470 0 1505 -35 1540 0C1575 35 1540 70 1540 140C1540 148.57 1547.61 156.8 1540 157.14C1477.61 159.91 1458.32 120.05 1400 146.22C1321.43 181.48 1322.27 207.75 1266.22 280C1252.27 297.98 1277.81 315.84 1260 326.67C1204.7 360.29 1179.07 382.07 1120 368.89C1074.5 358.74 1060.41 330.54 1050.86 280C1038.79 216.1 1070.07 210.59 1076.76 140" stroke="rgba(218, 95, 0, 1)" stroke-width="2"></path><path d="M700 350.74C658.78 350.74 616.71 382.78 616.71 420C616.71 461.87 658.9 508.92 700 508.92C740.19 508.92 779.28 461.99 779.28 420C779.28 382.9 740.06 350.74 700 350.74" stroke="rgba(218, 95, 0, 1)" stroke-width="2"></path><path d="M700 28.44C686.83 28.44 674.72 8.54 674.72 0C674.72 -5.68 687.36 0 700 0C714.67 0 729.35 -5.94 729.35 0C729.35 8.28 714.15 28.44 700 28.44" stroke="rgba(218, 95, 0, 1)" stroke-width="2"></path><path d="M817.05 140C829.56 129.26 829.39 116.27 840 116.27C849.4 116.27 856.38 125.88 857.07 140C860.38 207.75 846.26 210.16 848 280C849.75 350.16 866.95 351.93 864.06 420C862.95 445.99 850.88 468.13 840 468.13C829.57 468.13 838.41 438.69 821.45 420C768.41 361.57 761.12 366.48 700 313.89C679.76 296.48 658.72 298.23 658.72 280C658.72 259.53 677.57 256.32 700 236.49C756.73 186.32 759.56 189.37 817.05 140" stroke="rgba(218, 95, 0, 1)" stroke-width="2"></path><path d="M1540 51.33C1526.09 51.33 1491.88 15.24 1491.88 0C1491.88 -10.42 1528.36 -12.42 1540 0C1552.42 13.25 1550.15 51.33 1540 51.33" stroke="rgba(218, 95, 0, 1)" stroke-width="2"></path><path d="M1094.07 280C1094.07 227.57 1100.56 169.47 1120 169.47C1141.16 169.47 1175.26 232.75 1175.26 280C1175.26 304.68 1144.54 313.33 1120 313.33C1103.94 313.33 1094.07 299.5 1094.07 280" stroke="rgba(218, 95, 0, 1)" stroke-width="2"></path><path d="M0 375.28C20.5 375.28 64.4 392.75 64.4 420C64.4 456.39 18 502.56 0 502.56C-14.2 502.56 0 461.28 0 420C0 397.64 -11.7 375.28 0 375.28" stroke="rgba(218, 95, 0, 1)" stroke-width="2"></path><path d="M230 420C237.01 383.55 256.57 358.24 280 358.24C301.76 358.24 310.33 385.37 320.38 420C339.61 486.25 352.82 510.52 338.55 560C332.63 580.52 309.27 560 280 560C260.6 560 246.61 575.15 241.2 560C221.61 505.15 217.61 484.43 230 420" stroke="rgba(218, 95, 0, 1)" stroke-width="2"></path><path d="M537.73 420C537.73 409.82 550.01 404.19 560 404.19C567.35 404.19 572.41 411.04 572.41 420C572.41 437.1 568.22 456.3 560 456.3C550.88 456.3 537.73 435.87 537.73 420" stroke="rgba(218, 95, 0, 1)" stroke-width="2"></path><path d="M687.27 560C687.27 559.04 693.65 556.22 700 556.22C706.1 556.22 712.17 559.03 712.17 560C712.17 560.92 706.09 560 700 560C693.63 560 687.27 560.93 687.27 560" stroke="rgba(218, 95, 0, 1)" stroke-width="2"></path><path d="M967.83 560C967.83 558.68 974.61 554.91 980 554.91C982.59 554.91 983.78 558.41 983.78 560C983.78 560.95 981.89 560 980 560C973.91 560 967.83 561.22 967.83 560" stroke="rgba(218, 95, 0, 1)" stroke-width="2"></path></g><defs><mask id="SvgjsMask1003"><rect width="1440" height="560" fill="#ffffff"></rect></mask></defs></svg>