<svg data-name="004_ROMANTIC" viewBox="0 0 24 24" xmlns="http://www.w3.org/2000/svg"><path d="M18 22h-2a3.003 3.003 0 0 1-3-3v-.806a4.012 4.012 0 0 1 1.188-2.839l3.11-3.067a1 1 0 1 1 1.404 1.424l-3.11 3.067A2 2 0 0 0 15 18.194V19a1.001 1.001 0 0 0 1 1h1.586l1.536-1.536a3.022 3.022 0 0 0 .878-2.12V10a1 1 0 0 1 2 0v6.343a4.966 4.966 0 0 1-1.464 3.535l-1.829 1.829A1 1 0 0 1 18 22ZM8 22H6a1 1 0 0 1-.707-.293l-1.829-1.829A4.966 4.966 0 0 1 2 16.343V10a1 1 0 0 1 2 0v6.343a3.022 3.022 0 0 0 .878 2.121L6.414 20H8a1.001 1.001 0 0 0 1-1v-.8a2.014 2.014 0 0 0-.596-1.425l-3.106-3.063a1 1 0 0 1 1.404-1.424l3.107 3.064A4.024 4.024 0 0 1 11 18.2v.8a3.003 3.003 0 0 1-3 3ZM12 13.373c-1.687 0-6.884-3.573-6.884-7.942a5.692 5.692 0 0 1 .22-1.57A3.973 3.973 0 0 1 9.147 1 3.822 3.822 0 0 1 12 2.266 3.822 3.822 0 0 1 14.854 1a3.972 3.972 0 0 1 3.81 2.862 1 1 0 0 1-1.924.55A1.963 1.963 0 0 0 14.855 3a2.112 2.112 0 0 0-1.927 1.508 1 1 0 0 1-.928.629 1 1 0 0 1-.929-.63A2.11 2.11 0 0 0 9.146 3 1.965 1.965 0 0 0 7.26 4.412a3.702 3.702 0 0 0-.144 1.02c0 3.218 4.062 5.845 4.907 5.942a8.764 8.764 0 0 0 4.582-4.477 1 1 0 1 1 1.873.701c-1.228 3.279-5.039 5.775-6.478 5.775Z" fill="#F96D00" class="fill-333333"></path></svg>